<svg xmlns="http://www.w3.org/2000/svg" viewBox="0 0 140 40" fill="none">
  <!-- Area brand logo: stylized human figure icon + "Area" text -->
  <!-- Colors from AAP §0.5.3 design token system -->

  <!-- Stylized human figure icon -->
  <g fill="#5A5C32">
    <!-- Head -->
    <circle cx="16" cy="8" r="5"/>
    <!-- Body (torso with arms raised in a dynamic pose) -->
    <path d="M10 16 C10 14 12 13 16 13 C20 13 22 14 22 16 L22 28 C22 30 20 32 16 32 C12 32 10 30 10 28 Z"/>
    <!-- Left arm reaching up -->
    <path d="M10 16 L4 10 C3 9 3 7 5 7 C6 7 7 8 7 9 L10 16 Z"/>
    <!-- Right arm reaching up -->
    <path d="M22 16 L28 10 C29 9 29 7 27 7 C26 7 25 8 25 9 L22 16 Z"/>
  </g>

  <!-- "Area" text -->
  <text x="38" y="28" font-family="Georgia, 'Times New Roman', serif" font-size="24" font-weight="700" fill="#1A1A1A" letter-spacing="-0.5">
    Area
  </text>
</svg>
